<svg xmlns="http://www.w3.org/2000/svg" viewBox="0 0 496 512">
    <path fill="#8800ff"
        d="M244.8 8C106.1 8 0 113.3 0 252 0 362.9 69.8 457.8 169.5 491.2 182.3 493.5 186.8 485.6 186.8 479.1 186.8 472.9 186.5 438.7 186.5 417.7 186.5 417.7 116.5 432.7 101.8 387.9 101.8 387.9 90.4 358.8 74 351.3 74 351.3 51.1 335.6 75.6 335.9 75.6 335.9 100.5 337.9 114.2 361.7 136.1 400.3 172.8 389.2 187.1 382.6 189.4 366.6 195.9 355.5 203.1 348.9 147.2 342.7 90.8 334.6 90.8 238.4 90.8 210.9 98.4 197.1 114.4 179.5 111.8 173 103.3 146.2 117 111.6 137.9 105.1 186 138.6 186 138.6 206 133 227.5 130.1 248.8 130.1S291.6 133 311.6 138.6C311.6 138.6 359.7 105 380.6 111.6 394.3 146.3 385.8 173 383.2 179.5 399.2 197.2 409 211 409 238.4 409 334.9 350.1 342.6 294.2 348.9 303.4 356.8 311.2 371.8 311.2 395.3 311.2 429 310.9 470.7 310.9 478.9 310.9 485.4 315.5 493.3 328.2 491 428.2 457.8 496 362.9 496 252 496 113.3 383.5 8 244.8 8Z" />
</svg>