<svg xmlns="http://www.w3.org/2000/svg" id="Layer_1" viewBox="0 0 64 64">
    <circle fill="#5c2d91" class="cls-1" cx="32" cy="32" r="32" />
    <path fill="#ffffff" style="opacity: 0.1" d="M 10.8 8 C 2 15.9 -1.8 28.1 1 39.6 C 3.9 51.1 12.9 60.1 24.4 63 C 35.9 65.8 48.1 62 56 53.2 Z" />
    <path fill="#ffffff"
        d="M 7.4 37.3 a 1.4 1.4 0 0 1 -1 -0.4 a 1.4 1.4 0 0 1 -0.4 -1 a 1.4 1.4 0 0 1 0.4 -1 a 1.3 1.3 0 0 1 1 -0.4 a 1.4 1.4 0 0 1 1 0.4 a 1.4 1.4 0 0 1 0.4 1 a 1.4 1.4 0 0 1 -0.4 1 A 1.4 1.4 0 0 1 7.4 37.3 Z" />
    <path fill="#ffffff"
        d="M 27.3 37 H 24.6 L 15.3 22.5 a 6 6 0 0 1 -0.6 -1.1 h -0.1 a 18.7 18.7 0 0 1 0.1 2.5 V 37 H 12.6 V 18.8 h 2.8 l 9.1 14.3 q 0.6 0.9 0.7 1.2 h 0.1 a 19.3 19.3 0 0 1 -0.1 -2.7 V 18.8 h 2.1 Z" />
    <path fill="#ffffff" d="M 41.7 37 H 32 V 18.8 h 9.2 V 20.7 H 34.2 v 6.1 h 6.6 v 1.9 H 34.2 V 35 h 7.5 Z" />
    <path fill="#ffffff" d="M 56 20.7 H 50.7 V 37 H 48.6 V 20.7 H 43.3 V 18.8 H 56 Z" />
    <path fill="#f2f2f2"
        d="M 26.1 49.4 a 4.9 4.9 0 0 1 -2.3 0.5 a 3.7 3.7 0 0 1 -2.9 -1.1 a 4.3 4.3 0 0 1 -1.1 -3 a 4.5 4.5 0 0 1 1.2 -3.3 a 4.1 4.1 0 0 1 3.1 -1.2 a 4.9 4.9 0 0 1 2 0.3 v 1 a 4 4 0 0 0 -2 -0.5 a 3.1 3.1 0 0 0 -2.4 1 a 3.6 3.6 0 0 0 -0.9 2.6 a 3.5 3.5 0 0 0 0.8 2.5 a 2.9 2.9 0 0 0 2.2 0.9 a 4.1 4.1 0 0 0 2.2 -0.6 Z" />
    <path fill="#f2f2f2"
        d="M 30.2 49.9 A 2.8 2.8 0 0 1 28.1 49 a 3.1 3.1 0 0 1 -0.8 -2.2 a 3.2 3.2 0 0 1 0.8 -2.4 a 3 3 0 0 1 2.2 -0.8 a 2.7 2.7 0 0 1 2.1 0.8 a 3.3 3.3 0 0 1 0.8 2.3 a 3.2 3.2 0 0 1 -0.8 2.3 A 2.8 2.8 0 0 1 30.2 49.9 Z m 0.1 -5.5 a 1.8 1.8 0 0 0 -1.5 0.6 a 2.6 2.6 0 0 0 -0.5 1.7 a 2.5 2.5 0 0 0 0.5 1.7 a 1.9 1.9 0 0 0 1.5 0.6 a 1.8 1.8 0 0 0 1.4 -0.6 a 2.6 2.6 0 0 0 0.5 -1.7 a 2.7 2.7 0 0 0 -0.5 -1.7 A 1.8 1.8 0 0 0 30.3 44.4 Z" />
    <path fill="#f2f2f2"
        d="M 37.9 44.7 a 1.2 1.2 0 0 0 -0.7 -0.2 a 1.2 1.2 0 0 0 -1 0.6 a 2.7 2.7 0 0 0 -0.4 1.6 v 3.1 h -1 v -6 h 1 V 45 h 0 a 2.1 2.1 0 0 1 0.6 -1 a 1.4 1.4 0 0 1 0.9 -0.3 a 1.6 1.6 0 0 1 0.6 0.1 Z" />
    <path fill="#f2f2f2"
        d="M 43.7 47 H 39.5 A 2.2 2.2 0 0 0 40 48.5 a 1.9 1.9 0 0 0 1.4 0.5 a 3 3 0 0 0 1.9 -0.7 v 0.9 a 3.5 3.5 0 0 1 -2.1 0.6 a 2.5 2.5 0 0 1 -2 -0.8 a 3.4 3.4 0 0 1 -0.7 -2.3 a 3.3 3.3 0 0 1 0.8 -2.3 a 2.5 2.5 0 0 1 2 -0.9 a 2.3 2.3 0 0 1 1.8 0.8 a 3.2 3.2 0 0 1 0.6 2.1 Z m -1 -0.8 a 2 2 0 0 0 -0.4 -1.3 a 1.4 1.4 0 0 0 -1.1 -0.5 a 1.6 1.6 0 0 0 -1.1 0.5 a 2.2 2.2 0 0 0 -0.6 1.3 Z" />
</svg>